# Blender 4.2.2 LTS
# www.blender.org
mtllib cell.mtl
o Plane
v 0.958142 0.047470 -0.072500
v 0.881608 0.150000 -0.000000
v 0.958142 0.047470 0.072500
v 0.948890 0.097784 -0.058112
v 0.972446 0.047470 -0.026420
v 0.963986 0.096223 -0.018348
v 0.921265 0.134793 0.031942
v 0.921265 0.134793 -0.031942
v 0.947797 0.123403 0.000000
v 0.972446 0.047470 0.026420
v 0.948890 0.097784 0.058112
v 0.963986 0.096223 0.018348
v 0.541858 0.047470 -0.793525
v 0.416284 0.047470 -0.866025
v 0.440804 0.150000 -0.763495
v 0.509104 0.047470 -0.828953
v 0.524771 0.097784 -0.792707
v 0.497883 0.096223 -0.825663
v 0.424119 0.097784 -0.850819
v 0.463342 0.047470 -0.855373
v 0.466103 0.096223 -0.844010
v 0.488295 0.134793 -0.781867
v 0.432969 0.134793 -0.813810
v 0.473899 0.123403 -0.820817
v -0.416284 0.047470 -0.866025
v -0.541858 0.047470 -0.793525
v -0.440804 0.150000 -0.763495
v -0.463343 0.047470 -0.855373
v -0.424119 0.097784 -0.850819
v -0.466103 0.096223 -0.844010
v -0.524771 0.097784 -0.792707
v -0.509104 0.047470 -0.828953
v -0.497883 0.096223 -0.825662
v -0.432969 0.134793 -0.813810
v -0.488295 0.134793 -0.781867
v -0.473899 0.123403 -0.820817
v -0.958142 0.047470 -0.072500
v -0.958142 0.047470 0.072500
v -0.881608 0.150000 0.000000
v -0.972446 0.047470 -0.026420
v -0.948890 0.097784 -0.058111
v -0.963986 0.096223 -0.018348
v -0.948890 0.097784 0.058112
v -0.972446 0.047470 0.026420
v -0.963986 0.096223 0.018348
v -0.921265 0.134793 -0.031942
v -0.921265 0.134793 0.031942
v -0.947797 0.123403 0.000000
v -0.541858 0.047470 0.793525
v -0.416284 0.047470 0.866025
v -0.440804 0.150000 0.763495
v -0.509103 0.047470 0.828953
v -0.524771 0.097784 0.792707
v -0.497883 0.096223 0.825663
v -0.424119 0.097784 0.850819
v -0.463342 0.047470 0.855373
v -0.466103 0.096223 0.844010
v -0.488295 0.134793 0.781867
v -0.432969 0.134793 0.813810
v -0.473899 0.123403 0.820817
v 0.416284 0.047470 0.866025
v 0.541858 0.047470 0.793525
v 0.440804 0.150000 0.763495
v 0.463342 0.047470 0.855373
v 0.424119 0.097784 0.850819
v 0.466103 0.096223 0.844010
v 0.524771 0.097784 0.792707
v 0.509103 0.047470 0.828953
v 0.497883 0.096223 0.825663
v 0.432969 0.134793 0.813810
v 0.488295 0.134793 0.781867
v 0.473899 0.123403 0.820817
v 0.958142 -0.047470 0.072500
v 0.881608 -0.150000 -0.000000
v 0.958142 -0.047470 -0.072500
v 0.948890 -0.097784 0.058112
v 0.972446 -0.047470 0.026420
v 0.963986 -0.096223 0.018348
v 0.921265 -0.134793 -0.031942
v 0.921265 -0.134793 0.031942
v 0.947797 -0.123403 -0.000000
v 0.972446 -0.047470 -0.026420
v 0.948890 -0.097784 -0.058112
v 0.963986 -0.096223 -0.018348
v 0.416284 -0.047470 -0.866025
v 0.541858 -0.047470 -0.793525
v 0.440804 -0.150000 -0.763495
v 0.463342 -0.047470 -0.855373
v 0.424119 -0.097784 -0.850819
v 0.466103 -0.096223 -0.844010
v 0.524771 -0.097784 -0.792707
v 0.509104 -0.047470 -0.828953
v 0.497883 -0.096223 -0.825663
v 0.432969 -0.134793 -0.813810
v 0.488295 -0.134793 -0.781867
v 0.473899 -0.123403 -0.820817
v -0.541858 -0.047470 -0.793525
v -0.416284 -0.047470 -0.866025
v -0.440804 -0.150000 -0.763495
v -0.509104 -0.047470 -0.828953
v -0.524771 -0.097784 -0.792707
v -0.497883 -0.096223 -0.825662
v -0.424119 -0.097784 -0.850819
v -0.463343 -0.047470 -0.855373
v -0.466103 -0.096223 -0.844010
v -0.488295 -0.134793 -0.781867
v -0.432969 -0.134793 -0.813810
v -0.473899 -0.123403 -0.820817
v -0.958142 -0.047470 0.072500
v -0.958142 -0.047470 -0.072500
v -0.881608 -0.150000 0.000000
v -0.972446 -0.047470 0.026420
v -0.948890 -0.097784 0.058112
v -0.963986 -0.096223 0.018348
v -0.948890 -0.097784 -0.058111
v -0.972446 -0.047470 -0.026420
v -0.963986 -0.096223 -0.018348
v -0.921265 -0.134793 0.031942
v -0.921265 -0.134793 -0.031942
v -0.947797 -0.123403 0.000000
v -0.416284 -0.047470 0.866025
v -0.541858 -0.047470 0.793525
v -0.440804 -0.150000 0.763495
v -0.463342 -0.047470 0.855373
v -0.424119 -0.097784 0.850819
v -0.466103 -0.096223 0.844010
v -0.524771 -0.097784 0.792707
v -0.509103 -0.047470 0.828953
v -0.497883 -0.096223 0.825663
v -0.432969 -0.134793 0.813810
v -0.488295 -0.134793 0.781867
v -0.473899 -0.123403 0.820817
v 0.541858 -0.047470 0.793525
v 0.416284 -0.047470 0.866025
v 0.440804 -0.150000 0.763495
v 0.509103 -0.047470 0.828953
v 0.524771 -0.097784 0.792707
v 0.497883 -0.096223 0.825663
v 0.424119 -0.097784 0.850819
v 0.463342 -0.047470 0.855373
v 0.466103 -0.096223 0.844010
v 0.488295 -0.134793 0.781867
v 0.432969 -0.134793 0.813810
v 0.473899 -0.123403 0.820817
vn 0.8660 -0.0000 0.5000
vn -0.0000 1.0000 -0.0000
vn -0.8660 -0.0000 -0.5000
vn -0.8660 -0.0000 0.5000
vn -0.0000 -0.0000 1.0000
vn -0.0000 -1.0000 -0.0000
vn -0.0000 -0.0000 -1.0000
vn 0.9208 0.2352 -0.3111
vn 0.6909 0.6663 -0.2807
vn 0.3729 0.9279 -0.0000
vn 0.6909 0.6663 0.2807
vn 0.9208 0.2352 0.3111
vn 0.9853 0.1710 -0.0000
vn 0.8591 0.5117 -0.0000
vn 0.7298 0.2352 -0.6419
vn 0.4926 0.1710 -0.8533
vn 0.1910 0.2352 -0.9530
vn 0.1023 0.6663 -0.7387
vn 0.1864 0.9279 -0.3229
vn 0.5885 0.6663 -0.4579
vn 0.4296 0.5117 -0.7440
vn -0.1910 0.2352 -0.9530
vn -0.4926 0.1710 -0.8533
vn -0.7298 0.2352 -0.6419
vn -0.5885 0.6663 -0.4579
vn -0.1864 0.9279 -0.3229
vn -0.1023 0.6663 -0.7387
vn -0.4296 0.5117 -0.7440
vn -0.9208 0.2352 -0.3111
vn -0.9853 0.1710 -0.0000
vn -0.9208 0.2352 0.3111
vn -0.6909 0.6663 0.2807
vn -0.3729 0.9279 -0.0000
vn -0.6909 0.6663 -0.2807
vn -0.8591 0.5117 -0.0000
vn -0.7298 0.2352 0.6419
vn -0.4926 0.1710 0.8533
vn -0.1910 0.2352 0.9530
vn -0.1023 0.6663 0.7387
vn -0.1864 0.9279 0.3229
vn -0.5885 0.6663 0.4579
vn -0.4296 0.5117 0.7440
vn 0.1910 0.2352 0.9530
vn 0.4926 0.1710 0.8533
vn 0.7298 0.2352 0.6419
vn 0.5885 0.6663 0.4579
vn 0.1864 0.9279 0.3229
vn 0.1023 0.6663 0.7387
vn 0.4296 0.5117 0.7440
vn 0.9208 -0.2352 0.3111
vn 0.6909 -0.6663 0.2807
vn 0.3729 -0.9279 -0.0000
vn 0.6909 -0.6663 -0.2807
vn 0.9208 -0.2352 -0.3111
vn 0.9853 -0.1710 -0.0000
vn 0.8591 -0.5117 -0.0000
vn 0.1910 -0.2352 -0.9530
vn 0.4926 -0.1710 -0.8533
vn 0.7298 -0.2352 -0.6419
vn 0.5885 -0.6663 -0.4579
vn 0.1864 -0.9279 -0.3229
vn 0.1023 -0.6663 -0.7387
vn 0.4296 -0.5117 -0.7440
vn -0.7298 -0.2352 -0.6419
vn -0.4926 -0.1710 -0.8533
vn -0.1910 -0.2352 -0.9530
vn -0.1023 -0.6663 -0.7387
vn -0.1864 -0.9279 -0.3229
vn -0.5885 -0.6663 -0.4579
vn -0.4296 -0.5117 -0.7440
vn -0.9208 -0.2352 0.3111
vn -0.9853 -0.1710 -0.0000
vn -0.9208 -0.2352 -0.3111
vn -0.6909 -0.6663 -0.2807
vn -0.3729 -0.9279 -0.0000
vn -0.6909 -0.6663 0.2807
vn -0.8591 -0.5117 -0.0000
vn -0.1910 -0.2352 0.9530
vn -0.4926 -0.1710 0.8533
vn -0.7298 -0.2352 0.6419
vn -0.5886 -0.6663 0.4579
vn -0.1864 -0.9279 0.3229
vn -0.1023 -0.6663 0.7387
vn -0.4296 -0.5117 0.7440
vn 0.7298 -0.2352 0.6419
vn 0.4926 -0.1710 0.8533
vn 0.1910 -0.2352 0.9530
vn 0.1023 -0.6663 0.7387
vn 0.1864 -0.9279 0.3229
vn 0.5885 -0.6663 0.4579
vn 0.4296 -0.5117 0.7440
vn 0.8290 0.2893 -0.4786
vn 0.6124 0.7071 -0.3536
vn 0.2505 0.9572 -0.1447
vn -0.0000 0.2893 -0.9572
vn -0.0000 0.7071 -0.7071
vn -0.0000 0.9572 -0.2893
vn -0.8290 0.2893 -0.4786
vn -0.6124 0.7071 -0.3536
vn -0.2505 0.9572 -0.1447
vn -0.8290 0.2893 0.4786
vn -0.6124 0.7071 0.3536
vn -0.2505 0.9572 0.1447
vn -0.0000 0.2893 0.9572
vn -0.0000 0.7071 0.7071
vn -0.0000 0.9572 0.2893
vn 0.8290 0.2893 0.4786
vn 0.6124 0.7071 0.3536
vn 0.2505 0.9572 0.1447
vn 0.9550 -0.0000 0.2965
vn 1.0000 -0.0000 -0.0000
vn 0.9550 -0.0000 -0.2965
vn 0.7343 -0.0000 -0.6789
vn 0.5000 -0.0000 -0.8660
vn 0.2208 -0.0000 -0.9753
vn -0.2208 -0.0000 -0.9753
vn -0.5000 -0.0000 -0.8660
vn -0.7343 -0.0000 -0.6789
vn -0.9550 -0.0000 -0.2965
vn -1.0000 -0.0000 -0.0000
vn -0.9550 -0.0000 0.2965
vn -0.7343 -0.0000 0.6789
vn -0.5000 -0.0000 0.8660
vn -0.2208 -0.0000 0.9753
vn 0.2208 -0.0000 0.9753
vn 0.5000 -0.0000 0.8660
vn 0.7343 -0.0000 0.6789
vn 0.2505 -0.9572 -0.1447
vn 0.6124 -0.7071 -0.3536
vn 0.8290 -0.2893 -0.4786
vn -0.0000 -0.9572 -0.2893
vn -0.0000 -0.7071 -0.7071
vn -0.0000 -0.2893 -0.9572
vn -0.2505 -0.9572 -0.1447
vn -0.6124 -0.7071 -0.3536
vn -0.8290 -0.2893 -0.4786
vn -0.2505 -0.9572 0.1447
vn -0.6124 -0.7071 0.3536
vn -0.8290 -0.2893 0.4786
vn -0.0000 -0.9572 0.2893
vn -0.0000 -0.7071 0.7071
vn -0.0000 -0.2893 0.9572
vn 0.2505 -0.9572 0.1447
vn 0.6124 -0.7071 0.3536
vn 0.8290 -0.2893 0.4786
vn 0.8660 -0.0000 -0.5000
s 0
usemtl 
f 62//1 133//1 73//1 3//1
f 2//2 15//2 27//2 39//2 51//2 63//2
f 26//3 97//3 110//3 37//3
f 38//4 109//4 122//4 49//4
f 50//5 121//5 134//5 61//5
f 135//6 123//6 111//6 99//6 87//6 74//6
f 14//7 85//7 98//7 25//7
f 1//8 4//8 6//8 5//8
f 4//9 8//9 9//9 6//9
f 2//10 7//10 9//10 8//10
f 7//11 11//11 12//11 9//11
f 3//12 10//12 12//12 11//12
f 10//13 5//13 6//13 12//13
f 6//14 9//14 12//14
f 13//15 16//15 18//15 17//15
f 16//16 20//16 21//16 18//16
f 14//17 19//17 21//17 20//17
f 19//18 23//18 24//18 21//18
f 15//19 22//19 24//19 23//19
f 22//20 17//20 18//20 24//20
f 18//21 21//21 24//21
f 25//22 28//22 30//22 29//22
f 28//23 32//23 33//23 30//23
f 26//24 31//24 33//24 32//24
f 31//25 35//25 36//25 33//25
f 27//26 34//26 36//26 35//26
f 34//27 29//27 30//27 36//27
f 30//28 33//28 36//28
f 37//29 40//29 42//29 41//29
f 40//30 44//30 45//30 42//30
f 38//31 43//31 45//31 44//31
f 43//32 47//32 48//32 45//32
f 39//33 46//33 48//33 47//33
f 46//34 41//34 42//34 48//34
f 42//35 45//35 48//35
f 49//36 52//36 54//36 53//36
f 52//37 56//37 57//37 54//37
f 50//38 55//38 57//38 56//38
f 55//39 59//39 60//39 57//39
f 51//40 58//40 60//40 59//40
f 58//41 53//41 54//41 60//41
f 54//42 57//42 60//42
f 61//43 64//43 66//43 65//43
f 64//44 68//44 69//44 66//44
f 62//45 67//45 69//45 68//45
f 67//46 71//46 72//46 69//46
f 63//47 70//47 72//47 71//47
f 70//48 65//48 66//48 72//48
f 66//49 69//49 72//49
f 73//50 76//50 78//50 77//50
f 76//51 80//51 81//51 78//51
f 74//52 79//52 81//52 80//52
f 79//53 83//53 84//53 81//53
f 75//54 82//54 84//54 83//54
f 82//55 77//55 78//55 84//55
f 78//56 81//56 84//56
f 85//57 88//57 90//57 89//57
f 88//58 92//58 93//58 90//58
f 86//59 91//59 93//59 92//59
f 91//60 95//60 96//60 93//60
f 87//61 94//61 96//61 95//61
f 94//62 89//62 90//62 96//62
f 90//63 93//63 96//63
f 97//64 100//64 102//64 101//64
f 100//65 104//65 105//65 102//65
f 98//66 103//66 105//66 104//66
f 103//67 107//67 108//67 105//67
f 99//68 106//68 108//68 107//68
f 106//69 101//69 102//69 108//69
f 102//70 105//70 108//70
f 109//71 112//71 114//71 113//71
f 112//72 116//72 117//72 114//72
f 110//73 115//73 117//73 116//73
f 115//74 119//74 120//74 117//74
f 111//75 118//75 120//75 119//75
f 118//76 113//76 114//76 120//76
f 114//77 117//77 120//77
f 121//78 124//78 126//78 125//78
f 124//79 128//79 129//79 126//79
f 122//80 127//80 129//80 128//80
f 127//81 131//81 132//81 129//81
f 123//82 130//82 132//82 131//82
f 130//83 125//83 126//83 132//83
f 126//84 129//84 132//84
f 133//85 136//85 138//85 137//85
f 136//86 140//86 141//86 138//86
f 134//87 139//87 141//87 140//87
f 139//88 143//88 144//88 141//88
f 135//89 142//89 144//89 143//89
f 142//90 137//90 138//90 144//90
f 138//91 141//91 144//91
f 1//92 13//92 17//92 4//92
f 4//93 17//93 22//93 8//93
f 8//94 22//94 15//94 2//94
f 14//95 25//95 29//95 19//95
f 19//96 29//96 34//96 23//96
f 23//97 34//97 27//97 15//97
f 26//98 37//98 41//98 31//98
f 31//99 41//99 46//99 35//99
f 35//100 46//100 39//100 27//100
f 38//101 49//101 53//101 43//101
f 43//102 53//102 58//102 47//102
f 47//103 58//103 51//103 39//103
f 50//104 61//104 65//104 55//104
f 55//105 65//105 70//105 59//105
f 59//106 70//106 63//106 51//106
f 62//107 3//107 11//107 67//107
f 67//108 11//108 7//108 71//108
f 71//109 7//109 2//109 63//109
f 3//110 73//110 77//110 10//110
f 10//111 77//111 82//111 5//111
f 5//112 82//112 75//112 1//112
f 13//113 86//113 92//113 16//113
f 16//114 92//114 88//114 20//114
f 20//115 88//115 85//115 14//115
f 25//116 98//116 104//116 28//116
f 28//117 104//117 100//117 32//117
f 32//118 100//118 97//118 26//118
f 37//119 110//119 116//119 40//119
f 40//120 116//120 112//120 44//120
f 44//121 112//121 109//121 38//121
f 49//122 122//122 128//122 52//122
f 52//123 128//123 124//123 56//123
f 56//124 124//124 121//124 50//124
f 61//125 134//125 140//125 64//125
f 64//126 140//126 136//126 68//126
f 68//127 136//127 133//127 62//127
f 74//128 87//128 95//128 79//128
f 79//129 95//129 91//129 83//129
f 83//130 91//130 86//130 75//130
f 87//131 99//131 107//131 94//131
f 94//132 107//132 103//132 89//132
f 89//133 103//133 98//133 85//133
f 99//134 111//134 119//134 106//134
f 106//135 119//135 115//135 101//135
f 101//136 115//136 110//136 97//136
f 111//137 123//137 131//137 118//137
f 118//138 131//138 127//138 113//138
f 113//139 127//139 122//139 109//139
f 123//140 135//140 143//140 130//140
f 130//141 143//141 139//141 125//141
f 125//142 139//142 134//142 121//142
f 135//143 74//143 80//143 142//143
f 142//144 80//144 76//144 137//144
f 137//145 76//145 73//145 133//145
f 1//146 75//146 86//146 13//146
