# ProBuilder 5.2.2
# https://unity3d.com/unity/features/worldbuilding/probuilder
# 15.06.2024 18:40:35

mtllib ./cell.mtl
o cell

g Cylinder
v -0.975 -0.05 0.04330128
v -0.975 0.04999999 0.04330128
v -0.525 -0.05 0.8227242
v -0.525 0.04999999 0.8227242
v -0.45 -0.05 0.8660254
v -0.45 0.04999999 0.8660254
v 0.45 -0.05 0.8660254
v 0.45 0.04999999 0.8660254
v 0.525 -0.05 0.8227241
v 0.525 0.04999999 0.8227241
v 0.975 -0.05 0.04330119
v 0.975 0.04999999 0.04330119
v 0.975 -0.05 -0.04330134
v 0.975 0.04999999 -0.04330134
v 0.5249999 -0.05 -0.8227242
v 0.5249999 0.04999999 -0.8227242
v 0.4499999 -0.05 -0.8660254
v 0.4499999 0.04999999 -0.8660254
v -0.4499999 -0.05 -0.8660254
v -0.4499999 0.04999999 -0.8660254
v -0.5249999 -0.05 -0.8227242
v -0.5249999 0.04999999 -0.8227242
v -0.975 -0.05 -0.04330128
v -0.975 0.04999999 -0.04330128
v -0.925 -0.1 0.04330128
v -0.07499999 -0.1 0.04330128
v -0.5 -0.1 0.7794229
v -0.925 0.09999999 0.04330128
v -0.07499999 0.09999999 0.04330128
v -0.5 0.09999999 0.7794229
v -0.425 -0.1 0.8227242
v 0 -0.1 0.08660257
v 0.4250001 -0.1 0.8227241
v -0.425 0.09999999 0.8227242
v 0 0.09999999 0.08660257
v 0.4250001 0.09999999 0.8227241
v 0.5000001 -0.1 0.7794228
v 0.07500002 -0.1 0.04330128
v 0.9250001 -0.1 0.04330119
v 0.5000001 0.09999999 0.7794228
v 0.07500002 0.09999999 0.04330128
v 0.9250001 0.09999999 0.04330119
v 0.9250001 -0.1 -0.04330134
v 0.07500002 -0.1 -0.04330128
v 0.4999999 -0.1 -0.779423
v 0.9250001 0.09999999 -0.04330134
v 0.07500002 0.09999999 -0.04330128
v 0.4999999 0.09999999 -0.779423
v 0.4249999 -0.1 -0.8227242
v 1.490116E-08 -0.1 -0.08660257
v -0.4249999 -0.1 -0.8227242
v 0.4249999 0.09999999 -0.8227242
v 1.490116E-08 0.09999999 -0.08660257
v -0.4249999 0.09999999 -0.8227242
v -0.4999999 -0.1 -0.779423
v -0.07499999 -0.1 -0.04330128
v -0.925 -0.1 -0.04330128
v -0.4999999 0.09999999 -0.779423
v -0.07499999 0.09999999 -0.04330128
v -0.925 0.09999999 -0.04330125
v 0 0.1 0
v 0 -0.1 0
v 0.4624999 0.075 -0.8443748
v -0.4624999 0.075 -0.8443748
v 0.9625 0.07500002 -0.02165073
v 0.4999999 0.07500002 -0.8227242
v -0.4624999 -0.07500002 -0.8443748
v 0.4624999 -0.07500002 -0.8443748
v 0.4999999 -0.07500003 -0.8227242
v 0.9625 -0.07500002 -0.02165073
v -0.4999999 0.07500002 -0.8227242
v -0.9625 0.075 -0.02165064
v -0.9625 -0.075 -0.02165064
v -0.4999999 -0.07500003 -0.8227242
v -0.5 -0.075 0.8227242
v -0.9625 -0.075 0.02165064
v -0.9625 0.075 0.02165064
v -0.5 0.07499999 0.8227242
v -0.4625 0.075 0.8443748
v 0.4625001 0.075 0.8443748
v 0.4625 -0.075 0.8443748
v -0.4625 -0.075 0.8443748
v 0.5000001 0.07499999 0.8227241
v 0.9625 0.075 0.02165055
v 0.9625 -0.07500002 0.02165055
v 0.5000001 -0.075 0.8227241
v 0.4843749 0.0625 -0.8389622
v 0.4843748 -0.06250001 -0.8389622
v -0.4843749 0.0625 -0.8389622
v -0.4843749 -0.06250001 -0.8389622
v -0.96875 -0.0625 0
v -0.96875 0.0625 0
v -0.484375 0.0625 0.8389621
v -0.484375 -0.0625 0.8389621
v 0.4843751 0.0625 0.8389621
v 0.4843751 -0.0625 0.8389621
v 0.96875 0.0625 -5.960464E-08
v 0.96875 -0.06250001 -5.960464E-08

vt -0.6656169 -0.0254062
vt -0.6656169 0.0745938
vt 0.2343832 -0.0254062
vt 0.2343832 0.0745938
vt -0.2162406 -0.0254062
vt -0.2162406 0.0745938
vt 0.6837595 -0.0254062
vt 0.6837595 0.0745938
vt -0.000623703 -0.0254062
vt -0.000623703 0.0745938
vt 0.8993763 -0.0254062
vt 0.8993763 0.0745938
vt -0.2343832 -0.0254062
vt -0.2343832 0.0745938
vt 0.6656168 -0.0254062
vt 0.6656168 0.0745938
vt -0.6837593 -0.0254062
vt -0.6837593 0.0745938
vt 0.2162405 -0.0254062
vt 0.2162405 0.0745938
vt -0.8993763 -0.0254062
vt -0.8993763 0.0745938
vt 0.0006237328 -0.0254062
vt 0.0006237328 0.0745938
vt -0.6912406 -0.3406327
vt 0.1587594 -0.3406327
vt -0.2662406 0.3954889
vt 0.6912406 -0.3406327
vt -0.1587594 -0.3406327
vt 0.2662406 0.3954889
vt -0.1912406 0.4387901
vt 0.2337594 -0.2973315
vt 0.6587595 0.4387901
vt 0.1912406 0.4387901
vt -0.2337594 -0.2973315
vt -0.6587595 0.4387901
vt 0.7337595 0.3954888
vt 0.3087594 -0.3406327
vt 1.158759 -0.3406328
vt -0.7337595 0.3954888
vt -0.3087594 -0.3406327
vt -1.158759 -0.3406328
vt 1.158759 -0.4272354
vt 0.3087594 -0.4272353
vt 0.7337593 -1.163357
vt -1.158759 -0.4272354
vt -0.3087594 -0.4272353
vt -0.7337593 -1.163357
vt 0.6587593 -1.206658
vt 0.2337594 -0.4705366
vt -0.1912405 -1.206658
vt -0.6587593 -1.206658
vt -0.2337594 -0.4705366
vt 0.1912405 -1.206658
vt -0.2662405 -1.163357
vt 0.1587594 -0.4272353
vt -0.6912406 -0.4272353
vt 0.2662405 -1.163357
vt -0.1587594 -0.4272353
vt 0.6912406 -0.4272353
vt 0.07499999 0.04330128
vt 0.5 0.7794229
vt 0 0.08660257
vt 0.425 0.8227242
vt -0.4250001 0.8227241
vt -0.07500002 0.04330128
vt -0.5000001 0.7794228
vt 0.925 0.04330128
vt 0.925 -0.04330125
vt 0.07499999 -0.04330128
vt -1.490116E-08 -0.08660257
vt 0.4249999 -0.8227242
vt 0.4999999 -0.779423
vt -0.07500002 -0.04330128
vt -0.4999999 -0.779423
vt -0.4249999 -0.8227242
vt -0.9250001 0.04330119
vt -0.9250001 -0.04330134
vt -9.93411E-09 -1.720637E-08
vt -0.075 0.04330128
vt -0.075 -0.04330128
vt 0.07500002 -0.04330128
vt 0.07500002 0.04330128
vt 0.4250001 0.8227241
vt 0.5000001 0.7794228
vt -0.5 0.7794229
vt -0.425 0.8227242
vt -0.04330146 0.04999999
vt -0.04330146 -0.05
vt 0.04330105 0.04999999
vt 0.04330105 -0.05
vt -0.4499999 -0.5291499
vt -0.4624999 -0.496078
vt -0.4249999 -0.4630062
vt 0.4249999 -0.4630062
vt 0.4624999 -0.496078
vt 0.4499999 -0.5291499
vt -0.6540735 0.2338538
vt -0.6275569 0.2572392
vt -0.5833628 0.2338538
vt -0.2828425 -0.5612485
vt -0.3005201 -0.6080191
vt -0.3358755 -0.6080191
vt -0.3715674 -0.6114408
vt -0.4150487 -0.6361263
vt -0.4506243 -0.6114408
vt -0.4427186 -0.5620698
vt 0.4499999 0.5291499
vt 0.4624999 0.496078
vt 0.4249999 0.4630062
vt -0.4249999 0.4630062
vt -0.4624999 0.496078
vt -0.4499999 0.5291499
vt 0.3358754 -0.6080191
vt 0.3005201 -0.6080191
vt 0.2828424 -0.5612485
vt 0.5833628 0.2338538
vt 0.6275569 0.2572392
vt 0.6540735 0.2338538
vt 0.3715678 -0.6114415
vt 0.4427191 -0.5620705
vt 0.4506248 -0.6114416
vt 0.4150491 -0.636127
vt -0.3358757 0.6080194
vt -0.3005204 0.6080194
vt -0.2828428 0.5612487
vt -0.5833632 -0.2338535
vt -0.6275573 -0.2572388
vt -0.6540739 -0.2338535
vt -0.7141762 -0.04330128
vt -0.7592456 -0.02165064
vt -0.7592456 0.02165064
vt -0.7141762 0.04330128
vt 0.6540738 -0.2338535
vt 0.6275573 -0.2572389
vt 0.5833632 -0.2338535
vt 0.2828427 0.5612487
vt 0.3005204 0.6080194
vt 0.3358757 0.6080194
vt 0.7141764 -0.04330125
vt 0.7141764 0.04330128
vt 0.7592457 0.02165064
vt 0.7592457 -0.02165064
vt -0.45 -0.5291504
vt -0.425 -0.4630066
vt 0.425 -0.4630066
vt 0.4625001 -0.4960785
vt 0.45 -0.5291504
vt 0.3715676 0.6114414
vt 0.4150489 0.6361269
vt 0.4506245 0.6114414
vt 0.4427188 0.5620704
vt 0.45 0.5291503
vt 0.425 0.4630065
vt -0.425 0.4630065
vt -0.45 0.5291503
vt -0.3715676 0.6114411
vt -0.4427188 0.56207
vt -0.4506245 0.6114411
vt -0.4150489 0.6361266
vt -0.04330151 -0.3913103
vt -2.610592E-07 -0.3773349
vt 0.043301 -0.3913103
vt 0.02164895 -0.3633631
vt -0.02165251 -0.3633629
vt 0.04330105 0.3913118
vt -1.555661E-07 0.3773363
vt -0.04330146 0.3913118
vt -0.02165125 0.3633599
vt 0.02164884 0.3633614

vn -0.8660254 0 0.5000001
vn 6.622738E-08 0 1
vn 0.8660254 0 0.5
vn 0.8660253 0 -0.5000001
vn 0 0 -1
vn -0.8660254 0 -0.5000001
vn 0 -1 0
vn 0 1 0
vn 0.4999997 0 -0.8660256
vn -0.4999997 0 -0.8660256
vn -1 0 0
vn -0.5000002 0 0.8660253
vn 0.5000002 0 0.8660253
vn 1 0 0
vn 5.194663E-07 0.6546535 -0.7559292
vn 0.654654 0.6546534 -0.3779644
vn 0.2773503 0.8320497 -0.4803853
vn -7.548113E-07 -0.6546534 -0.7559291
vn 0.6546541 -0.6546532 -0.3779645
vn 0.2773503 -0.8320497 -0.4803853
vn -0.6546538 0.6546535 -0.3779645
vn -0.2773496 0.8320502 -0.4803849
vn -0.6546539 -0.6546538 -0.377964
vn -0.2773497 -0.8320501 -0.4803849
vn -0.6546536 -0.6546538 0.3779645
vn -0.5547007 -0.83205 0
vn -0.6546538 0.6546539 0.377964
vn -0.5547004 0.8320502 0
vn -3.035983E-07 0.6546539 0.7559288
vn -0.2773502 0.8320503 0.4803844
vn -2.335054E-07 -0.6546537 0.7559289
vn -0.2773501 -0.8320501 0.4803847
vn 0.654654 0.6546534 0.3779645
vn 0.2773502 0.8320503 0.4803844
vn 0.6546541 -0.6546535 0.377964
vn 0.2773502 -0.8320503 0.4803844
vn 0.5547009 0.8320498 1.431656E-07
vn 0.554701 -0.8320497 0
vn 0.4472137 0.447212 -0.7745976
vn 0.4472134 -0.4472135 -0.7745969
vn -0.4472135 0.4472128 -0.7745972
vn -0.4472136 -0.4472127 -0.7745973
vn -0.8944265 -0.4472151 0
vn -0.8944266 0.4472149 0
vn -0.4472136 0.4472143 0.7745963
vn -0.4472136 -0.4472145 0.7745962
vn 0.4472138 0.4472134 0.7745966
vn 0.4472138 -0.4472137 0.7745966
vn 0.8944266 0.4472148 0
vn 0.8944267 -0.4472146 0

usemtl m_cell
f 25/25/7 26/26/7 27/27/7
f 31/31/7 32/32/7 33/33/7
f 37/37/7 38/38/7 39/39/7
f 43/43/7 44/44/7 45/45/7
f 49/49/7 50/50/7 51/51/7
f 55/55/7 56/56/7 57/57/7
f 30/30/8 29/29/8 28/28/8
f 36/36/8 35/35/8 34/34/8
f 42/42/8 41/41/8 40/40/8
f 48/48/8 47/47/8 46/46/8
f 54/54/8 53/53/8 52/52/8
f 60/60/8 59/59/8 58/58/8
f 35/63/8 61/79/8 29/61/8
f 41/66/8 61/79/8 35/63/8
f 47/81/8 61/79/8 41/80/8
f 53/71/8 61/79/8 47/74/8
f 59/70/8 61/79/8 53/71/8
f 29/61/8 61/79/8 59/70/8
f 50/71/7 62/79/7 56/81/7
f 44/82/7 62/79/7 50/71/7
f 38/83/7 62/79/7 44/82/7
f 32/63/7 62/79/7 38/83/7
f 26/80/7 62/79/7 32/63/7
f 56/81/7 62/79/7 26/80/7
f 54/95/15 20/97/15 64/96/15
f 18/92/15 20/97/15 54/95/15
f 18/92/15 54/95/15 52/94/15
f 63/93/15 18/92/15 52/94/15
f 48/101/16 16/103/16 66/102/16
f 48/101/16 14/98/16 16/103/16
f 46/100/16 14/98/16 48/101/16
f 65/99/16 14/98/16 46/100/16
f 51/110/18 67/109/18 19/108/18
f 17/113/18 51/110/18 19/108/18
f 17/113/18 49/111/18 51/110/18
f 68/112/18 49/111/18 17/113/18
f 43/117/19 13/119/19 70/118/19
f 45/116/19 13/119/19 43/117/19
f 45/116/19 15/114/19 13/119/19
f 45/116/19 69/115/19 15/114/19
f 72/118/21 60/117/21 24/119/21
f 24/119/21 60/117/21 22/114/21
f 58/116/21 71/115/21 22/114/21
f 60/117/21 58/116/21 22/114/21
f 21/103/23 55/101/23 57/100/23
f 21/103/23 74/102/23 55/101/23
f 23/98/23 21/103/23 57/100/23
f 23/98/23 57/100/23 73/99/23
f 75/125/25 3/124/25 27/126/25
f 1/129/25 76/128/25 25/127/25
f 27/126/25 1/129/25 25/127/25
f 27/126/25 3/124/25 1/129/25
f 28/136/27 77/135/27 2/134/27
f 28/136/27 2/134/27 4/139/27
f 4/139/27 30/137/27 28/136/27
f 4/139/27 78/138/27 30/137/27
f 36/146/29 8/148/29 80/147/29
f 36/146/29 34/145/29 8/148/29
f 34/145/29 6/144/29 8/148/29
f 79/93/29 6/144/29 34/145/29
f 7/153/31 33/154/31 81/109/31
f 31/155/31 33/154/31 7/153/31
f 5/156/31 31/155/31 7/153/31
f 5/156/31 82/112/31 31/155/31
f 40/126/33 83/125/33 10/124/33
f 40/126/33 10/124/33 12/129/33
f 12/129/33 42/127/33 40/126/33
f 12/129/33 84/128/33 42/127/33
f 11/134/35 9/139/35 37/137/35
f 39/136/35 11/134/35 37/137/35
f 39/136/35 85/135/35 11/134/35
f 37/137/35 9/139/35 86/138/35
f 18/163/39 87/162/39 16/161/39
f 63/164/39 87/162/39 18/163/39
f 66/165/39 87/162/39 63/164/39
f 16/161/39 87/162/39 66/165/39
f 15/168/40 88/167/40 17/166/40
f 69/169/40 88/167/40 15/168/40
f 68/170/40 88/167/40 69/169/40
f 17/166/40 88/167/40 68/170/40
f 22/163/41 89/162/41 20/161/41
f 71/164/41 89/162/41 22/163/41
f 64/165/41 89/162/41 71/164/41
f 20/161/41 89/162/41 64/165/41
f 19/168/42 90/167/42 21/166/42
f 67/169/42 90/167/42 19/168/42
f 74/170/42 90/167/42 67/169/42
f 21/166/42 90/167/42 74/170/42
f 23/168/43 91/167/43 1/166/43
f 73/169/43 91/167/43 23/168/43
f 76/170/43 91/167/43 73/169/43
f 1/166/43 91/167/43 76/170/43
f 2/163/44 92/162/44 24/161/44
f 77/164/44 92/162/44 2/163/44
f 72/165/44 92/162/44 77/164/44
f 24/161/44 92/162/44 72/165/44
f 6/163/45 93/162/45 4/161/45
f 79/164/45 93/162/45 6/163/45
f 78/165/45 93/162/45 79/164/45
f 4/161/45 93/162/45 78/165/45
f 3/168/46 94/167/46 5/166/46
f 75/169/46 94/167/46 3/168/46
f 82/170/46 94/167/46 75/169/46
f 5/166/46 94/167/46 82/170/46
f 10/163/47 95/162/47 8/161/47
f 83/164/47 95/162/47 10/163/47
f 80/165/47 95/162/47 83/164/47
f 8/161/47 95/162/47 80/165/47
f 7/168/48 96/167/48 9/166/48
f 81/169/48 96/167/48 7/168/48
f 86/170/48 96/167/48 81/169/48
f 9/166/48 96/167/48 86/170/48
f 14/163/49 97/162/49 12/161/49
f 65/164/49 97/162/49 14/163/49
f 84/165/49 97/162/49 65/164/49
f 12/161/49 97/162/49 84/165/49
f 11/168/50 98/167/50 13/166/50
f 85/169/50 98/167/50 11/168/50
f 70/170/50 98/167/50 85/169/50
f 13/166/50 98/167/50 70/170/50
f 4/4/1 2/2/1 1/1/1
f 1/1/1 3/3/1 4/4/1
f 8/8/2 6/6/2 5/5/2
f 5/5/2 7/7/2 8/8/2
f 12/12/3 10/10/3 9/9/3
f 9/9/3 11/11/3 12/12/3
f 16/16/4 14/14/4 13/13/4
f 13/13/4 15/15/4 16/16/4
f 20/20/5 18/18/5 17/17/5
f 17/17/5 19/19/5 20/20/5
f 24/24/6 22/22/6 21/21/6
f 21/21/6 23/23/6 24/24/6
f 35/63/8 29/61/8 30/62/8
f 30/62/8 34/64/8 35/63/8
f 41/66/8 35/63/8 36/65/8
f 36/65/8 40/67/8 41/66/8
f 60/69/8 28/68/8 29/61/8
f 29/61/8 59/70/8 60/69/8
f 59/70/8 53/71/8 54/72/8
f 54/72/8 58/73/8 59/70/8
f 53/71/8 47/74/8 48/75/8
f 48/75/8 52/76/8 53/71/8
f 47/74/8 41/66/8 42/77/8
f 42/77/8 46/78/8 47/74/8
f 55/75/7 51/76/7 50/71/7
f 50/71/7 56/81/7 55/75/7
f 49/72/7 45/73/7 44/82/7
f 44/82/7 50/71/7 49/72/7
f 43/69/7 39/68/7 38/83/7
f 38/83/7 44/82/7 43/69/7
f 37/85/7 33/84/7 32/63/7
f 32/63/7 38/83/7 37/85/7
f 31/87/7 27/86/7 26/80/7
f 26/80/7 32/63/7 31/87/7
f 56/81/7 26/80/7 25/77/7
f 25/77/7 57/78/7 56/81/7
f 18/90/9 16/88/9 15/89/9
f 15/89/9 17/91/9 18/90/9
f 22/90/10 20/88/10 19/89/10
f 19/89/10 21/91/10 22/90/10
f 23/89/11 1/91/11 2/90/11
f 2/90/11 24/88/11 23/89/11
f 6/90/12 4/88/12 3/89/12
f 3/89/12 5/91/12 6/90/12
f 10/90/13 8/88/13 7/89/13
f 7/89/13 9/91/13 10/90/13
f 14/90/14 12/88/14 11/89/14
f 11/89/14 13/91/14 14/90/14
f 66/106/17 63/105/17 52/104/17
f 52/104/17 48/107/17 66/106/17
f 68/123/20 69/122/20 45/121/20
f 45/121/20 49/120/20 68/123/20
f 54/120/22 64/123/22 71/122/22
f 71/122/22 58/121/22 54/120/22
f 74/106/24 67/105/24 51/104/24
f 51/104/24 55/107/24 74/106/24
f 73/131/26 57/130/26 25/133/26
f 25/133/26 76/132/26 73/131/26
f 60/140/28 72/143/28 77/142/28
f 77/142/28 28/141/28 60/140/28
f 34/149/30 30/152/30 78/151/30
f 78/151/30 79/150/30 34/149/30
f 27/158/32 31/157/32 82/160/32
f 82/160/32 75/159/32 27/158/32
f 83/159/34 40/158/34 36/157/34
f 36/157/34 80/160/34 83/159/34
f 37/152/36 86/151/36 81/150/36
f 81/150/36 33/149/36 37/152/36
f 84/132/37 65/131/37 46/130/37
f 46/130/37 42/133/37 84/132/37
f 85/142/38 39/141/38 43/140/38
f 43/140/38 70/143/38 85/142/38

