# ProBuilder 5.2.2
# https://unity3d.com/unity/features/worldbuilding/probuilder
# 15.06.2024 18:34:56

mtllib ./Body.mtl
o Body

g Body
v -0.9255 -0.025 0.04243522
v -0.9255 0.025 0.04243522
v -0.4995 -0.025 0.7802889
v -0.4995 0.025 0.7802889
v -0.426 -0.025 0.8227241
v -0.426 0.025 0.8227241
v 0.426 -0.025 0.8227241
v 0.426 0.025 0.8227241
v 0.4995 -0.025 0.7802889
v 0.4995 0.025 0.7802889
v 0.9255 -0.025 0.04243513
v 0.9255 0.025 0.04243513
v 0.9255 -0.025 -0.04243537
v 0.9255 0.025 -0.04243537
v 0.4994999 -0.025 -0.7802889
v 0.4994999 0.025 -0.7802889
v 0.4259999 -0.025 -0.8227241
v 0.4259999 0.025 -0.8227241
v -0.4259999 -0.025 -0.8227241
v -0.4259999 0.025 -0.8227241
v -0.4994999 -0.025 -0.7802889
v -0.4994999 0.025 -0.7802889
v -0.9255 -0.025 -0.04243528
v -0.9255 0.025 -0.04243528
v -0.8750001 -0.075 0.04330124
v -0.07500003 -0.075 0.04330124
v -0.475 -0.075 0.7361215
v -0.8750001 0.075 0.04330124
v -0.07500003 0.075 0.04330124
v -0.475 0.075 0.7361215
v -0.4 -0.075 0.7794228
v -2.421439E-08 -0.075 0.08660251
v 0.4 -0.075 0.7794228
v -0.4 0.075 0.7794228
v -2.980232E-08 0.075 0.08660251
v 0.4 0.075 0.7794228
v 0.475 -0.075 0.7361215
v 0.07499997 -0.075 0.04330124
v 0.8750001 -0.075 0.04330115
v 0.475 0.075 0.7361215
v 0.07499997 0.075 0.04330124
v 0.8750001 0.075 0.04330115
v 0.875 -0.075 -0.04330138
v 0.07499997 -0.075 -0.04330131
v 0.4749999 -0.075 -0.7361215
v 0.875 0.075 -0.04330138
v 0.07499997 0.075 -0.04330131
v 0.4749999 0.075 -0.7361215
v 0.3999999 -0.075 -0.7794228
v -2.980232E-08 -0.075 -0.08660258
v -0.3999999 -0.075 -0.7794228
v 0.3999999 0.075 -0.7794228
v -2.980232E-08 0.075 -0.08660258
v -0.3999999 0.075 -0.7794228
v -0.4749999 -0.075 -0.7361215
v -0.07500003 -0.075 -0.0433013
v -0.8750001 -0.075 -0.0433013
v -0.4749999 0.075 -0.7361215
v -0.07500003 0.075 -0.0433013
v -0.8750001 0.075 -0.0433013
v -2.980232E-08 0.075 -3.290673E-08
v -2.980232E-08 -0.075 -3.228585E-08
v 0.4382499 0.0495 -0.8015065
v -0.4382499 0.0495 -0.8015065
v -0.4749999 0.0495 -0.7802889
v -0.91325 0.04950001 -0.02121766
v -0.4382499 -0.0495 -0.8015065
v 0.4382499 -0.0495 -0.8015065
v -0.91325 -0.04950001 -0.02121766
v -0.4749999 -0.0495 -0.7802889
v -0.475 -0.0495 0.7802889
v -0.91325 -0.04950001 0.0212176
v -0.91325 0.04950001 0.0212176
v -0.475 0.0495 0.7802889
v -0.43825 0.0495 0.8015065
v 0.43825 0.0495 0.8015065
v 0.43825 -0.0495 0.8015065
v -0.43825 -0.0495 0.8015065
v 0.475 0.0495 0.7802889
v 0.91325 0.04950001 0.02121751
v 0.91325 -0.04950001 0.02121751
v 0.475 -0.0495 0.7802889
v 0.91325 0.0495 -0.02121773
v 0.4749999 0.0495 -0.7802889
v 0.4749999 -0.0495 -0.7802889
v 0.91325 -0.0495 -0.02121773
v -0.4596874 0.03725 -0.7962021
v -0.4596874 -0.03725 -0.7962021
v -0.919375 -0.03725 -2.8871E-08
v -0.919375 0.03725 -2.8871E-08
v -0.4596875 0.03725 0.7962021
v -0.4596875 -0.03725 0.7962021
v 0.4596875 0.03725 0.7962021
v 0.4596875 -0.03725 0.7962021
v 0.919375 0.03725 -1.150183E-07
v 0.919375 -0.03725 -1.150183E-07
v 0.4596874 0.03725 -0.7962021
v 0.4596874 -0.03725 -0.7962021

vt -0.4260002 -0.025
vt -0.4260002 0.025
vt 0.4259999 -0.025
vt 0.4259999 0.025
vt -0.426 -0.025
vt -0.426 0.025
vt 0.4260001 -0.025
vt 0.4260001 0.025
vt -0.8750001 0.04330124
vt -0.07500003 0.04330124
vt -0.475 0.7361215
vt 0.8750001 0.04330124
vt 0.07500003 0.04330124
vt 0.475 0.7361215
vt -0.4 0.7794228
vt -2.421439E-08 0.08660251
vt 0.4 0.7794228
vt 0.07499997 0.04330124
vt -0.07499997 0.04330124
vt 0.875 -0.04330138
vt 0.07499997 -0.04330131
vt 0.4749999 -0.7361215
vt -0.875 -0.04330138
vt -0.07499997 -0.04330131
vt -0.4749999 -0.7361215
vt 0.3999999 -0.7794228
vt -2.980232E-08 -0.08660258
vt -0.3999999 -0.7794228
vt -0.07500003 -0.0433013
vt 0.07500003 -0.0433013
vt 2.980232E-08 -3.290673E-08
vt -0.04243509 0.025
vt -0.04243509 -0.025
vt 0.0424354 0.025
vt 0.0424354 -0.025
vt -0.4259999 -0.5197012
vt -0.4382499 -0.4872908
vt -0.3999999 -0.4535574
vt 0.3999999 -0.4535574
vt 0.4382499 -0.4872908
vt 0.4259999 -0.5197012
vt 0.3355254 -0.5822317
vt 0.3008772 -0.5822316
vt 0.2828461 -0.5345253
vt 0.5656914 0.2138052
vt 0.6107695 0.2376581
vt 0.6367556 0.2147403
vt 0.4269076 -0.5392839
vt 0.4349714 -0.5896425
vt 0.4001073 -0.6138342
vt 0.3557563 -0.588655
vt 0.4259999 0.5197012
vt 0.4382499 0.4872908
vt 0.3999999 0.4535574
vt -0.3999999 0.4535574
vt -0.4382499 0.4872908
vt -0.4259999 0.5197012
vt -0.6367499 0.2147444
vt -0.6107637 0.2376621
vt -0.5656856 0.213809
vt -0.2828428 -0.5345224
vt -0.300874 -0.5822286
vt -0.3355222 -0.5822286
vt -0.4269074 -0.5392839
vt -0.3557562 -0.5886549
vt -0.4001071 -0.6138341
vt -0.4349712 -0.5896423
vt -0.3355222 0.5822286
vt -0.300874 0.5822286
vt -0.2828427 0.5345225
vt -0.5656855 -0.213809
vt -0.6107635 -0.2376621
vt -0.6367497 -0.2147444
vt -0.6864414 -0.0433013
vt -0.7324122 -0.02121766
vt -0.7324122 0.0212176
vt -0.6864414 0.04330124
vt 0.6367511 -0.2147435
vt 0.6107649 -0.2376612
vt 0.5656868 -0.2138082
vt 0.2828435 0.5345231
vt 0.3008747 0.5822293
vt 0.3355229 0.5822293
vt 0.6864414 -0.0433013
vt 0.6864414 0.04330124
vt 0.7324122 0.0212176
vt 0.7324122 -0.02121766
vt 0.3557563 0.5886549
vt 0.4001072 0.6138341
vt 0.4349713 0.5896423
vt 0.4269075 0.5392839
vt -0.3557563 0.5886545
vt -0.4269075 0.5392835
vt -0.4349713 0.5896419
vt -0.4001072 0.6138337
vt -0.04243506 -0.3915337
vt 1.543874E-07 -0.3778378
vt 0.04243542 -0.3915337
vt 0.02121681 -0.3641444
vt -0.02121682 -0.3641465
vt 0.04243542 0.3915337
vt 1.543874E-07 0.3778378
vt -0.04243506 0.3915337
vt -0.02121607 0.3641455
vt 0.02121842 0.3641465

vn -0.8660254 0 0.5
vn 0 0 1
vn 0.8660254 0 0.5
vn 0.8660253 0 -0.5000002
vn 0 0 -1
vn -0.8660254 0 -0.5000001
vn 0 -1 0
vn 0 1 0
vn -0.4999998 0 -0.8660255
vn -1 0 0
vn -0.4999998 0 0.8660255
vn 0.4999998 0 0.8660255
vn 1 0 0
vn 0.4999998 0 -0.8660255
vn 1.427678E-07 0.6546538 -0.7559288
vn -0.6546535 0.6546538 -0.3779645
vn -0.2773498 0.8320504 -0.4803843
vn -2.141517E-07 -0.6546539 -0.7559288
vn -0.6546538 -0.6546536 -0.3779645
vn -0.27735 -0.8320505 -0.4803842
vn -0.6546536 -0.6546538 0.3779644
vn -0.5547004 -0.8320502 0
vn -0.6546537 0.6546537 0.3779644
vn -0.5547004 0.8320502 0
vn -2.141517E-07 0.6546539 0.7559288
vn -0.2773499 0.8320503 0.4803845
vn 1.427678E-07 -0.6546538 0.7559288
vn -0.2773499 -0.8320503 0.4803845
vn 0.6546535 0.6546539 0.3779643
vn 0.27735 0.8320505 0.4803842
vn 0.6546537 -0.6546537 0.3779644
vn 0.2773498 -0.8320504 0.4803843
vn 0.6546535 0.654654 -0.3779645
vn 0.5547002 0.8320503 -3.817753E-07
vn 0.6546534 -0.6546539 -0.3779645
vn 0.5547001 -0.8320503 -3.369751E-07
vn 0.2773501 0.8320502 -0.4803845
vn 0.2773501 -0.8320502 -0.4803845
vn -0.4472139 0.4472117 -0.7745976
vn -0.4472139 -0.4472117 -0.7745976
vn -0.8944263 -0.4472154 0
vn -0.8944263 0.4472154 0
vn -0.4472139 0.4472117 0.7745976
vn -0.4472139 -0.4472117 0.7745976
vn 0.4472139 0.4472117 0.7745976
vn 0.4472139 -0.4472117 0.7745976
vn 0.8944263 0.4472154 0
vn 0.8944263 -0.4472154 0
vn 0.4472139 0.4472117 -0.7745976
vn 0.4472139 -0.4472117 -0.7745976

usemtl m_hex_red
f 25/9/7 26/10/7 27/11/7
f 31/15/7 32/16/7 33/17/7
f 37/14/7 38/18/7 39/12/7
f 43/20/7 44/21/7 45/22/7
f 49/26/7 50/27/7 51/28/7
f 55/25/7 56/29/7 57/23/7
f 30/14/8 29/13/8 28/12/8
f 36/15/8 35/16/8 34/17/8
f 42/9/8 41/19/8 40/11/8
f 48/25/8 47/24/8 46/23/8
f 54/26/8 53/27/8 52/28/8
f 60/20/8 59/30/8 58/22/8
f 53/27/8 61/31/8 47/24/8
f 59/30/8 61/31/8 53/27/8
f 29/13/8 61/31/8 59/30/8
f 35/16/8 61/31/8 29/13/8
f 41/19/8 61/31/8 35/16/8
f 47/24/8 61/31/8 41/19/8
f 44/21/7 62/31/7 50/27/7
f 38/18/7 62/31/7 44/21/7
f 32/16/7 62/31/7 38/18/7
f 26/10/7 62/31/7 32/16/7
f 56/29/7 62/31/7 26/10/7
f 50/27/7 62/31/7 56/29/7
f 54/39/15 20/41/15 64/40/15
f 18/36/15 20/41/15 54/39/15
f 18/36/15 54/39/15 52/38/15
f 63/37/15 18/36/15 52/38/15
f 66/46/16 60/45/16 24/47/16
f 24/47/16 60/45/16 22/42/16
f 58/44/16 65/43/16 22/42/16
f 60/45/16 58/44/16 22/42/16
f 51/54/18 67/53/18 19/52/18
f 17/57/18 51/54/18 19/52/18
f 17/57/18 49/55/18 51/54/18
f 68/56/18 49/55/18 17/57/18
f 21/63/19 70/62/19 55/61/19
f 57/60/19 21/63/19 55/61/19
f 57/60/19 23/58/19 21/63/19
f 69/59/19 23/58/19 57/60/19
f 71/69/21 3/68/21 27/70/21
f 3/68/21 25/71/21 27/70/21
f 1/73/21 72/72/21 25/71/21
f 3/68/21 1/73/21 25/71/21
f 28/80/23 73/79/23 2/78/23
f 30/81/23 28/80/23 2/78/23
f 2/78/23 4/83/23 30/81/23
f 4/83/23 74/82/23 30/81/23
f 36/39/25 8/41/25 76/40/25
f 36/39/25 34/38/25 8/41/25
f 34/38/25 6/36/25 8/41/25
f 75/37/25 6/36/25 34/38/25
f 7/52/27 33/54/27 77/53/27
f 31/55/27 33/54/27 7/52/27
f 5/57/27 31/55/27 7/52/27
f 5/57/27 78/56/27 31/55/27
f 79/69/29 10/68/29 40/70/29
f 12/73/29 80/72/29 42/71/29
f 42/71/29 40/70/29 12/73/29
f 40/70/29 10/68/29 12/73/29
f 11/78/31 9/83/31 37/81/31
f 11/78/31 37/81/31 39/80/31
f 39/80/31 81/79/31 11/78/31
f 37/81/31 9/83/31 82/82/31
f 48/61/33 46/60/33 14/58/33
f 48/61/33 14/58/33 16/63/33
f 16/63/33 84/62/33 48/61/33
f 14/58/33 46/60/33 83/59/33
f 43/45/35 13/47/35 86/46/35
f 15/42/35 13/47/35 43/45/35
f 15/42/35 43/45/35 45/44/35
f 85/43/35 15/42/35 45/44/35
f 22/98/39 87/97/39 20/96/39
f 65/99/39 87/97/39 22/98/39
f 64/100/39 87/97/39 65/99/39
f 20/96/39 87/97/39 64/100/39
f 19/103/40 88/102/40 21/101/40
f 67/104/40 88/102/40 19/103/40
f 70/105/40 88/102/40 67/104/40
f 21/101/40 88/102/40 70/105/40
f 23/103/41 89/102/41 1/101/41
f 69/104/41 89/102/41 23/103/41
f 72/105/41 89/102/41 69/104/41
f 1/101/41 89/102/41 72/105/41
f 2/98/42 90/97/42 24/96/42
f 73/99/42 90/97/42 2/98/42
f 66/100/42 90/97/42 73/99/42
f 24/96/42 90/97/42 66/100/42
f 6/98/43 91/97/43 4/96/43
f 75/99/43 91/97/43 6/98/43
f 74/100/43 91/97/43 75/99/43
f 4/96/43 91/97/43 74/100/43
f 3/103/44 92/102/44 5/101/44
f 71/104/44 92/102/44 3/103/44
f 78/105/44 92/102/44 71/104/44
f 5/101/44 92/102/44 78/105/44
f 10/98/45 93/97/45 8/96/45
f 79/99/45 93/97/45 10/98/45
f 76/100/45 93/97/45 79/99/45
f 8/96/45 93/97/45 76/100/45
f 7/103/46 94/102/46 9/101/46
f 77/104/46 94/102/46 7/103/46
f 82/105/46 94/102/46 77/104/46
f 9/101/46 94/102/46 82/105/46
f 14/98/47 95/97/47 12/96/47
f 83/99/47 95/97/47 14/98/47
f 80/100/47 95/97/47 83/99/47
f 12/96/47 95/97/47 80/100/47
f 11/103/48 96/102/48 13/101/48
f 81/104/48 96/102/48 11/103/48
f 86/105/48 96/102/48 81/104/48
f 13/101/48 96/102/48 86/105/48
f 18/98/49 97/97/49 16/96/49
f 63/99/49 97/97/49 18/98/49
f 84/100/49 97/97/49 63/99/49
f 16/96/49 97/97/49 84/100/49
f 15/103/50 98/102/50 17/101/50
f 85/104/50 98/102/50 15/103/50
f 68/105/50 98/102/50 85/104/50
f 17/101/50 98/102/50 68/105/50
f 4/4/1 2/2/1 1/1/1
f 1/1/1 3/3/1 4/4/1
f 8/4/2 6/6/2 5/5/2
f 5/5/2 7/3/2 8/4/2
f 12/8/3 10/6/3 9/5/3
f 9/5/3 11/7/3 12/8/3
f 16/4/4 14/2/4 13/1/4
f 13/1/4 15/3/4 16/4/4
f 20/4/5 18/6/5 17/5/5
f 17/5/5 19/3/5 20/4/5
f 24/8/6 22/6/6 21/5/6
f 21/5/6 23/7/6 24/8/6
f 53/27/8 47/24/8 48/25/8
f 48/25/8 52/28/8 53/27/8
f 59/30/8 53/27/8 54/26/8
f 54/26/8 58/22/8 59/30/8
f 47/24/8 41/19/8 42/9/8
f 42/9/8 46/23/8 47/24/8
f 41/19/8 35/16/8 36/15/8
f 36/15/8 40/11/8 41/19/8
f 35/16/8 29/13/8 30/14/8
f 30/14/8 34/17/8 35/16/8
f 60/20/8 28/12/8 29/13/8
f 29/13/8 59/30/8 60/20/8
f 49/26/7 45/22/7 44/21/7
f 44/21/7 50/27/7 49/26/7
f 43/20/7 39/12/7 38/18/7
f 38/18/7 44/21/7 43/20/7
f 55/25/7 51/28/7 50/27/7
f 50/27/7 56/29/7 55/25/7
f 56/29/7 26/10/7 25/9/7
f 25/9/7 57/23/7 56/29/7
f 31/15/7 27/11/7 26/10/7
f 26/10/7 32/16/7 31/15/7
f 37/14/7 33/17/7 32/16/7
f 32/16/7 38/18/7 37/14/7
f 22/34/9 20/32/9 19/33/9
f 19/33/9 21/35/9 22/34/9
f 23/33/10 1/35/10 2/34/10
f 2/34/10 24/32/10 23/33/10
f 6/34/11 4/32/11 3/33/11
f 3/33/11 5/35/11 6/34/11
f 10/34/12 8/32/12 7/33/12
f 7/33/12 9/35/12 10/34/12
f 14/34/13 12/32/13 11/33/13
f 11/33/13 13/35/13 14/34/13
f 18/34/14 16/32/14 15/33/14
f 15/33/14 17/35/14 18/34/14
f 54/51/17 64/50/17 65/49/17
f 65/49/17 58/48/17 54/51/17
f 67/66/20 51/65/20 55/64/20
f 55/64/20 70/67/20 67/66/20
f 69/75/22 57/74/22 25/77/22
f 25/77/22 72/76/22 69/75/22
f 60/84/24 66/87/24 73/86/24
f 73/86/24 28/85/24 60/84/24
f 34/88/26 30/91/26 74/90/26
f 74/90/26 75/89/26 34/88/26
f 27/93/28 31/92/28 78/95/28
f 78/95/28 71/94/28 27/93/28
f 79/94/30 40/93/30 36/92/30
f 36/92/30 76/95/30 79/94/30
f 37/91/32 82/90/32 77/89/32
f 77/89/32 33/88/32 37/91/32
f 80/76/34 83/75/34 46/74/34
f 46/74/34 42/77/34 80/76/34
f 81/86/36 39/85/36 43/84/36
f 43/84/36 86/87/36 81/86/36
f 84/67/37 63/66/37 52/65/37
f 52/65/37 48/64/37 84/67/37
f 68/50/38 85/49/38 45/48/38
f 45/48/38 49/51/38 68/50/38

